<svg width="25" height="25" viewBox="0 0 25 25" fill="none" xmlns="http://www.w3.org/2000/svg">
<path d="M17 12.5C17 11.82 16.94 11.16 16.86 10.5H20.24C20.4 11.14 20.5 11.81 20.5 12.5C20.5 12.87 20.47 13.23 20.42 13.58C21.11 13.68 21.75 13.9 22.34 14.22C22.44 13.66 22.5 13.09 22.5 12.5C22.5 7 18 2.5 12.5 2.5C6.97 2.5 2.5 7 2.5 12.5C2.5 18 7 22.5 12.5 22.5C13.09 22.5 13.66 22.44 14.22 22.34C13.745 21.4689 13.4974 20.4921 13.5 19.5C13.5 19.21 13.53 18.93 13.57 18.65C13.25 19.28 12.9 19.89 12.5 20.46C11.67 19.26 11 17.93 10.59 16.5H14.31C14.9106 15.4564 15.8137 14.6195 16.9 14.1C16.96 13.57 17 13.04 17 12.5ZM12.5 4.53C13.33 5.73 14 7.07 14.41 8.5H10.59C11 7.07 11.67 5.73 12.5 4.53ZM4.76 14.5C4.6 13.86 4.5 13.19 4.5 12.5C4.5 11.81 4.6 11.14 4.76 10.5H8.14C8.06 11.16 8 11.82 8 12.5C8 13.18 8.06 13.84 8.14 14.5H4.76ZM5.58 16.5H8.5C8.85 17.75 9.3 18.95 9.9 20.06C8.07827 19.4323 6.54429 18.1682 5.58 16.5ZM8.5 8.5H5.58C6.53864 6.82703 8.07466 5.56124 9.9 4.94C9.3 6.05 8.85 7.25 8.5 8.5ZM14.84 14.5H10.16C10.06 13.84 10 13.18 10 12.5C10 11.82 10.06 11.15 10.16 10.5H14.84C14.93 11.15 15 11.82 15 12.5C15 13.18 14.93 13.84 14.84 14.5ZM15.09 4.94C16.93 5.57 18.46 6.84 19.42 8.5H16.47C16.1565 7.26161 15.6931 6.06611 15.09 4.94ZM23 17.75L18.25 22.5L15.5 19.5L16.66 18.34L18.25 19.93L21.84 16.34L23 17.75Z" fill="white"/>
</svg>
