<svg width="37" height="37" viewBox="0 0 37 37" fill="none" xmlns="http://www.w3.org/2000/svg">
<rect width="37" height="37" rx="18.5" fill="#F7F7F7"/>
<path d="M25.6002 13.2743C25.7252 13.1533 25.8249 13.0086 25.8935 12.8485C25.9622 12.6884 25.9984 12.5162 25.9999 12.3419C26.0015 12.1677 25.9685 11.9948 25.9028 11.8335C25.8371 11.6722 25.74 11.5256 25.6172 11.4023C25.4945 11.279 25.3484 11.1815 25.1877 11.1155C25.0269 11.0494 24.8547 11.0161 24.681 11.0175C24.5072 11.019 24.3355 11.0551 24.1759 11.1238C24.0162 11.1925 23.8718 11.2924 23.7511 11.4177L18.5074 16.6761L13.2655 11.4177C13.1457 11.2888 13.0013 11.1853 12.8408 11.1136C12.6803 11.0419 12.507 11.0033 12.3314 11.0002C12.1557 10.9971 11.9812 11.0295 11.8183 11.0955C11.6554 11.1615 11.5074 11.2598 11.3832 11.3844C11.259 11.509 11.161 11.6575 11.0952 11.8209C11.0294 11.9843 10.9971 12.1593 11.0002 12.3356C11.0033 12.5118 11.0418 12.6856 11.1133 12.8466C11.1848 13.0075 11.2879 13.1524 11.4164 13.2726L16.6548 18.5327L11.4129 23.7911C11.1818 24.0399 11.056 24.369 11.062 24.709C11.068 25.049 11.2053 25.3734 11.445 25.6139C11.6847 25.8543 12.0081 25.992 12.347 25.998C12.6859 26.004 13.014 25.8778 13.262 25.646L18.5074 20.3876L23.7493 25.6478C23.9974 25.8796 24.3254 26.0058 24.6643 25.9998C25.0033 25.9938 25.3266 25.8561 25.5663 25.6156C25.8061 25.3751 25.9434 25.0507 25.9493 24.7107C25.9553 24.3707 25.8295 24.0417 25.5984 23.7929L20.36 18.5327L25.6002 13.2743Z" fill="#FF0A21"/>
</svg>
